<svg width="253" height="253" viewBox="0 0 253 253" fill="none" xmlns="http://www.w3.org/2000/svg">
<path d="M228.898 0C242.153 2.41144e-06 252.898 10.7452 252.898 24V228.9C252.898 242.155 242.153 252.9 228.898 252.9H24C10.7452 252.9 0 242.155 0 228.9V24C0 10.7452 10.7452 3.74789e-07 24 0H228.898ZM126.251 65.2676C101.789 65.2676 80.0877 67.6346 67.0674 69.6074C58.7819 70.7912 52.0744 77.1042 50.4961 85.3896C48.9179 94.4645 47.3398 107.88 47.3398 124.451C47.3398 141.023 48.9179 154.438 50.4961 163.513C52.0744 171.798 58.7819 178.111 67.0674 179.295C80.4823 181.268 102.183 183.635 126.251 183.635C150.713 183.635 172.414 181.268 185.435 179.295C193.72 178.111 200.427 171.798 202.006 163.513C203.584 154.438 205.163 141.023 205.558 124.451C205.558 107.88 203.584 94.4645 202.006 85.3896C200.427 77.1042 193.72 70.7911 185.435 69.6074C172.02 67.6346 150.713 65.2676 126.251 65.2676ZM150.124 124.451L102.777 152.07V96.832L150.124 124.451Z" fill="white"/>
</svg>
